<?xml version="1.0" encoding="UTF-8" standalone="no"?>
<!DOCTYPE svg PUBLIC "-//W3C//DTD SVG 1.1//EN" "http://www.w3.org/Graphics/SVG/1.1/DTD/svg11.dtd">
<!-- Generated by Microsoft Visio, SVG Export Architecture.svg Narrow Architecture -->
<svg xmlns="http://www.w3.org/2000/svg" xmlns:xlink="http://www.w3.org/1999/xlink" xmlns:ev="http://www.w3.org/2001/xml-events"
		xmlns:v="http://schemas.microsoft.com/visio/2003/SVGExtensions/" width="14.5in" height="5.58915in"
		viewBox="0 0 1044 402.419" xml:space="preserve" color-interpolation-filters="sRGB" class="st13">
	<v:documentProperties v:langID="1033" v:viewMarkup="false">
		<v:userDefs>
			<v:ud v:nameU="msvSubprocessMaster" v:prompt="" v:val="VT4(Rectangle)"/>
			<v:ud v:nameU="msvNoAutoConnect" v:val="VT0(1):26"/>
		</v:userDefs>
	</v:documentProperties>

	<style type="text/css">
	<![CDATA[
		.st1 {fill:#f2f2f2;stroke:#000000;stroke-linecap:round;stroke-linejoin:round;stroke-width:0.75}
		.st2 {fill:#bfbfbf;stroke:#000000;stroke-linecap:round;stroke-linejoin:round;stroke-width:0.75}
		.st3 {fill:#000000;font-family:Trebuchet MS;font-size:1.00001em;font-weight:bold}
		.st4 {fill:#d9d9d9;stroke:#000000;stroke-linecap:round;stroke-linejoin:round;stroke-width:0.75}
		.st5 {fill:#ddeebf;stroke:#000000;stroke-linecap:round;stroke-linejoin:round;stroke-width:0.5}
		.st6 {fill:#000000;font-family:Trebuchet MS;font-size:1.00001em}
		.st7 {fill:#000000;font-family:Trebuchet MS;font-size:1.16666em;font-weight:bold}
		.st8 {fill:#000000;font-family:Trebuchet MS;font-size:1.16666em;font-stretch:semi-condensed;font-weight:bold}
		.st9 {fill:#ddeebf;stroke:#000000;stroke-linecap:round;stroke-linejoin:round;stroke-width:0.75}
		.st10 {font-size:1em}
		.st11 {baseline-shift:32.4941%;font-size:0.649882em}
		.st12 {fill:#d8d8d8;stroke:#000000;stroke-linecap:round;stroke-linejoin:round;stroke-width:0.75}
		.st13 {fill:none;fill-rule:evenodd;font-size:12px;overflow:visible;stroke-linecap:square;stroke-miterlimit:3}
	]]>
	</style>

	<g v:mID="4" v:index="2" v:groupContext="foregroundPage">
		<v:userDefs>
			<v:ud v:nameU="msvThemeOrder" v:val="VT0(0):26"/>
		</v:userDefs>
		<title>Architecture</title>
		<v:pageProperties v:drawingScale="1" v:pageScale="1" v:drawingUnits="0" v:shadowOffsetX="9" v:shadowOffsetY="-9"/>
		<g id="shape1-1" v:mID="1" v:groupContext="shape" transform="translate(18,-34.5483)">
			<title>Sheet.1</title>
			<path d="M0 52.55 L0 402.42 L1008 402.42 L1008 52.55 L0 52.55 L0 52.55 Z" class="st1"/>
		</g>
		<g id="shape2-3" v:mID="2" v:groupContext="shape" transform="translate(27.3419,-350.938)">
			<title>Sheet.2</title>
			<desc>Documentation</desc>
			<v:textBlock v:margins="rect(4,4,4,4)"/>
			<v:textRect cx="244.8" cy="390.719" width="489.6" height="23.4"/>
			<path d="M0 379.02 L0 402.42 L489.6 402.42 L489.6 379.02 L0 379.02 L0 379.02 Z" class="st2"/>
			<text x="202.11" y="394.32" class="st3" v:langID="1033"><v:paragraph v:horizAlign="1"/><v:tabList/>Documentation</text>		</g>
		<g id="shape3-6" v:mID="3" v:groupContext="shape" transform="translate(525.15,-350.938)">
			<title>Sheet.3</title>
			<desc>Sample applications</desc>
			<v:textBlock v:margins="rect(4,4,4,4)"/>
			<v:textRect cx="244.8" cy="390.719" width="489.6" height="23.4"/>
			<path d="M0 379.02 L0 402.42 L489.6 402.42 L489.6 379.02 L0 379.02 L0 379.02 Z" class="st2"/>
			<text x="189.16" y="394.32" class="st3" v:langID="1033"><v:paragraph v:horizAlign="1"/><v:tabList/>Sample applications</text>		</g>
		<g id="shape4-9" v:mID="4" v:groupContext="shape" transform="translate(27.3419,-165.048)">
			<title>Sheet.4</title>
			<v:textBlock v:margins="rect(4,4,4,4)"/>
		</g>
		<g id="group110-10" transform="translate(27.3419,-18)" v:mID="110" v:groupContext="group">
			<title>Sheet.110</title>
			<g id="shape110-11" v:mID="110" v:groupContext="groupContent">
				<v:textBlock v:margins="rect(4,4,4,4)"/>
			</g>
		</g>
		<g id="group116-12" transform="translate(27.3419,-151.548)" v:mID="116" v:groupContext="group">
			<title>Sheet.116</title>
			<g id="shape111-13" v:mID="111" v:groupContext="shape">
				<title>Sheet.111</title>
				<v:textBlock v:margins="rect(4,4,4,4)" v:verticalAlign="0"/>
				<path d="M0 357.42 L0 402.42 L419.28 402.42 L419.28 357.42 L0 357.42 L0 357.42 Z" class="st4"/>
			</g>
			<g id="shape112-15" v:mID="112" v:groupContext="shape" transform="translate(7.73721,-11.25)">
				<title>Sheet.112</title>
				<desc>CUDA-X</desc>
				<v:textBlock v:margins="rect(4,4,4,4)"/>
				<v:textRect cx="202.398" cy="390.719" width="404.8" height="23.4"/>
				<path d="M0 379.02 L0 402.42 L404.8 402.42 L404.8 379.02 L0 379.02 L0 379.02 Z" class="st5"/>
				<text x="182.16" y="394.32" class="st6" v:langID="1033"><v:paragraph v:horizAlign="1"/><v:tabList/>CUDA-X</text>			</g>
		</g>
		<g id="group121-18" transform="translate(27.3419,-205.548)" v:mID="121" v:groupContext="group">
			<title>Sheet.121</title>
			<g id="shape17-19" v:mID="17" v:groupContext="shape">
				<title>Sheet.17</title>
				<desc>Deep Learning</desc>
				<v:textBlock v:margins="rect(4,4,4,4)" v:verticalAlign="0"/>
				<v:textRect cx="67.5" cy="334.52" width="135" height="135.798"/>
				<path d="M0 266.62 L0 402.42 L135 402.42 L135 266.62 L0 266.62 L0 266.62 Z" class="st4"/>
				<text x="20.29" y="283.22" class="st7" v:langID="1033"><v:paragraph v:horizAlign="1"/><v:tabList/>Deep Learning</text>			</g>
			<g id="shape18-22" v:mID="18" v:groupContext="shape" transform="translate(7.29,-84.6)">
				<title>Sheet.18</title>
				<desc>TensorRT</desc>
				<v:textBlock v:margins="rect(4,4,4,4)"/>
				<v:textRect cx="60.21" cy="390.719" width="120.42" height="23.4"/>
				<path d="M0 379.02 L0 402.42 L120.42 402.42 L120.42 379.02 L0 379.02 L0 379.02 Z" class="st5"/>
				<text x="35.22" y="394.32" class="st6" v:langID="1033"><v:paragraph v:horizAlign="1"/><v:tabList/>TensorRT</text>			</g>
			<g id="shape19-25" v:mID="19" v:groupContext="shape" transform="translate(7.29,-57.15)">
				<title>Sheet.19</title>
				<desc>cuDNN</desc>
				<v:textBlock v:margins="rect(4,4,4,4)"/>
				<v:textRect cx="60.21" cy="391.619" width="120.42" height="21.6"/>
				<path d="M0 380.82 L0 402.42 L120.42 402.42 L120.42 380.82 L0 380.82 L0 380.82 Z" class="st5"/>
				<text x="42.62" y="395.22" class="st6" v:langID="1033"><v:paragraph v:horizAlign="1"/><v:tabList/>cuDNN</text>			</g>
		</g>
		<g id="group122-28" transform="translate(169.875,-205.548)" v:mID="122" v:groupContext="group">
			<title>Sheet.122</title>
			<g id="shape13-29" v:mID="13" v:groupContext="shape">
				<title>Sheet.13</title>
				<desc>Computer Vision</desc>
				<v:textBlock v:margins="rect(4,2,4,2)" v:verticalAlign="0"/>
				<v:textRect cx="67.5" cy="334.52" width="135" height="135.798"/>
				<path d="M0 266.62 L0 402.42 L135 402.42 L135 266.62 L0 266.62 L0 266.62 Z" class="st4"/>
				<text x="16.19" y="283.22" class="st8" v:langID="1033"><v:paragraph v:horizAlign="1"/><v:tabList/>Computer Vision</text>			</g>
			<g id="shape15-32" v:mID="15" v:groupContext="shape" transform="translate(7.29,-57.15)">
				<title>Sheet.15</title>
				<desc>OpenCV</desc>
				<v:textBlock v:margins="rect(4,4,4,4)"/>
				<v:textRect cx="60.21" cy="391.619" width="120.42" height="21.6"/>
				<path d="M0 380.82 L0 402.42 L120.42 402.42 L120.42 380.82 L0 380.82 L0 380.82 Z" class="st9"/>
				<text x="39.16" y="395.22" class="st6" v:langID="1033"><v:paragraph v:horizAlign="1"/><v:tabList/>OpenCV</text>			</g>
			<g id="shape75-35" v:mID="75" v:groupContext="shape" transform="translate(7.29,-86.4)">
				<title>Sheet.75</title>
				<desc>VPI</desc>
				<v:textBlock v:margins="rect(4,4,4,4)"/>
				<v:textRect cx="60.21" cy="391.619" width="120.42" height="21.6"/>
				<path d="M0 380.82 L0 402.42 L120.42 402.42 L120.42 380.82 L0 380.82 L0 380.82 Z" class="st9"/>
				<text x="51.67" y="395.22" class="st6" v:langID="1033"><v:paragraph v:horizAlign="1"/><v:tabList/>VPI</text>			</g>
		</g>
		<g id="group123-38" transform="translate(311.873,-205.548)" v:mID="123" v:groupContext="group">
			<title>Sheet.123</title>
			<g id="shape9-39" v:mID="9" v:groupContext="shape">
				<title>Sheet.9</title>
				<desc>Accelerated Computing</desc>
				<v:textBlock v:margins="rect(4,4,4,4)" v:verticalAlign="0"/>
				<v:textRect cx="67.5" cy="334.52" width="135" height="135.798"/>
				<path d="M0 266.62 L0 402.42 L135 402.42 L135 266.62 L0 266.62 L0 266.62 Z" class="st4"/>
				<text x="28.21" y="283.22" class="st7" v:langID="1033"><v:paragraph v:horizAlign="1"/><v:tabList/>Accelerated <tspan
							x="32.52" dy="1.2em" class="st10">Computing</tspan></text>			</g>
			<g id="shape10-43" v:mID="10" v:groupContext="shape" transform="translate(7.29,-70.65)">
				<title>Sheet.10</title>
				<desc>cuBLAS</desc>
				<v:textBlock v:margins="rect(4,4,4,4)"/>
				<v:textRect cx="60.21" cy="391.619" width="120.42" height="21.6"/>
				<path d="M0 380.82 L0 402.42 L120.42 402.42 L120.42 380.82 L0 380.82 L0 380.82 Z" class="st9"/>
				<text x="41.1" y="395.22" class="st6" v:langID="1033"><v:paragraph v:horizAlign="1"/><v:tabList/>cuBLAS</text>			</g>
			<g id="shape11-46" v:mID="11" v:groupContext="shape" transform="translate(7.29,-42.3944)">
				<title>Sheet.11</title>
				<desc>cuFFT</desc>
				<v:textBlock v:margins="rect(4,4,4,4)"/>
				<v:textRect cx="60.21" cy="391.619" width="120.42" height="21.6"/>
				<path d="M0 380.82 L0 402.42 L120.42 402.42 L120.42 380.82 L0 380.82 L0 380.82 Z" class="st9"/>
				<text x="44.18" y="395.22" class="st6" v:langID="1033"><v:paragraph v:horizAlign="1"/><v:tabList/>cuFFT</text>			</g>
			<g id="shape92-49" v:mID="92" v:groupContext="shape" transform="translate(7.29,-10.2604)">
				<title>Sheet.92</title>
				<desc>. . .</desc>
				<v:textBlock v:margins="rect(4,4,4,4)"/>
				<v:textRect cx="60.21" cy="390.085" width="120.42" height="24.6682"/>
				<path d="M0 377.75 L0 402.42 L120.42 402.42 L120.42 377.75 L0 377.75 L0 377.75 Z" class="st9"/>
				<text x="49.99" y="393.68" class="st6" v:langID="1033"><v:paragraph v:horizAlign="1"/><v:tabList/>. . .</text>			</g>
		</g>
		<g id="group124-52" transform="translate(454.5,-151.548)" v:mID="124" v:groupContext="group">
			<title>Sheet.124</title>
			<g id="shape61-53" v:mID="61" v:groupContext="shape">
				<title>Sheet.61</title>
				<desc>Graphics</desc>
				<v:textBlock v:margins="rect(4,4,4,4)" v:verticalAlign="0"/>
				<v:textRect cx="67.5" cy="307.52" width="135" height="189.798"/>
				<path d="M0 212.62 L0 402.42 L135 402.42 L135 212.62 L0 212.62 L0 212.62 Z" class="st4"/>
				<text x="39.17" y="229.22" class="st7" v:langID="1033"><v:paragraph v:horizAlign="1"/><v:tabList/>Graphics</text>			</g>
			<g id="shape62-56" v:mID="62" v:groupContext="shape" transform="translate(7.29,-140.4)">
				<title>Sheet.62</title>
				<desc>Vulkan</desc>
				<v:textBlock v:margins="rect(4,4,4,4)"/>
				<v:textRect cx="60.21" cy="391.619" width="120.42" height="21.6"/>
				<path d="M0 380.82 L0 402.42 L120.42 402.42 L120.42 380.82 L0 380.82 L0 380.82 Z" class="st5"/>
				<text x="42.18" y="395.22" class="st6" v:langID="1033"><v:paragraph v:horizAlign="1"/><v:tabList/>Vulkan</text>			</g>
			<g id="shape63-59" v:mID="63" v:groupContext="shape" transform="translate(7.29,-111.6)">
				<title>Sheet.63</title>
				<desc>OpenGL ES</desc>
				<v:textBlock v:margins="rect(4,4,4,4)"/>
				<v:textRect cx="60.21" cy="390.719" width="120.42" height="23.4"/>
				<path d="M0 379.02 L0 402.42 L120.42 402.42 L120.42 379.02 L0 379.02 L0 379.02 Z" class="st5"/>
				<text x="31.27" y="394.32" class="st6" v:langID="1033"><v:paragraph v:horizAlign="1"/><v:tabList/>OpenGL ES</text>			</g>
			<g id="shape64-62" v:mID="64" v:groupContext="shape" transform="translate(7.29,-69.5046)">
				<title>Sheet.64</title>
				<desc>X11, Wayland, &#38; LibDRM</desc>
				<v:textBlock v:margins="rect(4,4,4,4)"/>
				<v:textRect cx="60.21" cy="384.419" width="120.42" height="36"/>
				<path d="M0 366.42 L0 402.42 L120.42 402.42 L120.42 366.42 L0 366.42 L0 366.42 Z" class="st9"/>
				<text x="15.55" y="380.82" class="st6" v:langID="1033"><v:paragraph v:horizAlign="1"/><v:tabList/>X11, Wayland, &#38; <tspan
							x="40.69" dy="1.2em" class="st10">LibDRM</tspan></text>			</g>
		</g>
		<g id="group125-66" transform="translate(596.25,-151.548)" v:mID="125" v:groupContext="group">
			<title>Sheet.125</title>
			<g id="shape77-67" v:mID="77" v:groupContext="shape">
				<title>Sheet.77</title>
				<desc>Multimedia</desc>
				<v:textBlock v:margins="rect(4,4,4,4)" v:verticalAlign="0"/>
				<v:textRect cx="67.5" cy="307.52" width="135" height="189.798"/>
				<path d="M0 212.62 L0 402.42 L135 402.42 L135 212.62 L0 212.62 L0 212.62 Z" class="st4"/>
				<text x="31.3" y="229.22" class="st7" v:langID="1033"><v:paragraph v:horizAlign="1"/><v:tabList/>Multimedia</text>			</g>
			<g id="shape78-70" v:mID="78" v:groupContext="shape" transform="translate(7.29,-140.4)">
				<title>Sheet.78</title>
				<desc>GStreamer</desc>
				<v:textBlock v:margins="rect(4,4,4,4)"/>
				<v:textRect cx="60.21" cy="391.619" width="120.42" height="21.6"/>
				<path d="M0 380.82 L0 402.42 L120.42 402.42 L120.42 380.82 L0 380.82 L0 380.82 Z" class="st5"/>
				<text x="31.55" y="395.22" class="st6" v:langID="1033"><v:paragraph v:horizAlign="1"/><v:tabList/>GStreamer</text>			</g>
			<g id="shape79-73" v:mID="79" v:groupContext="shape" transform="translate(7.29,-112.5)">
				<title>Sheet.79</title>
				<desc>V4L2 library</desc>
				<v:textBlock v:margins="rect(4,4,4,4)"/>
				<v:textRect cx="60.21" cy="391.619" width="120.42" height="21.6"/>
				<path d="M0 380.82 L0 402.42 L120.42 402.42 L120.42 380.82 L0 380.82 L0 380.82 Z" class="st5"/>
				<text x="27.95" y="395.22" class="st6" v:langID="1033"><v:paragraph v:horizAlign="1"/><v:tabList/>V4L2 library</text>			</g>
			<g id="shape80-76" v:mID="80" v:groupContext="shape" transform="translate(7.29,-84.15)">
				<title>Sheet.80</title>
				<desc>Image processing</desc>
				<v:textBlock v:margins="rect(4,4,4,4)"/>
				<v:textRect cx="60.21" cy="391.619" width="120.42" height="21.6"/>
				<path d="M0 380.82 L0 402.42 L120.42 402.42 L120.42 380.82 L0 380.82 L0 380.82 Z" class="st9"/>
				<text x="14.32" y="395.22" class="st6" v:langID="1033"><v:paragraph v:horizAlign="1"/><v:tabList/>Image processing</text>			</g>
			<g id="shape91-79" v:mID="91" v:groupContext="shape" transform="translate(7.29,-56.0758)">
				<title>Sheet.91</title>
				<desc>Media CODECs</desc>
				<v:textBlock v:margins="rect(4,4,4,4)"/>
				<v:textRect cx="60.21" cy="391.619" width="120.42" height="21.6"/>
				<path d="M0 380.82 L0 402.42 L120.42 402.42 L120.42 380.82 L0 380.82 L0 380.82 Z" class="st9"/>
				<text x="22.12" y="395.22" class="st6" v:langID="1033"><v:paragraph v:horizAlign="1"/><v:tabList/>Media CODECs</text>			</g>
		</g>
		<g id="group126-82" transform="translate(738,-151.548)" v:mID="126" v:groupContext="group">
			<title>Sheet.126</title>
			<g id="shape87-83" v:mID="87" v:groupContext="shape">
				<title>Sheet.87</title>
				<desc>Sensors</desc>
				<v:textBlock v:margins="rect(4,4,4,4)" v:verticalAlign="0"/>
				<v:textRect cx="67.5" cy="307.52" width="135" height="189.798"/>
				<path d="M0 212.62 L0 402.42 L135 402.42 L135 212.62 L0 212.62 L0 212.62 Z" class="st4"/>
				<text x="42.78" y="229.22" class="st7" v:langID="1033"><v:paragraph v:horizAlign="1"/><v:tabList/>Sensors</text>			</g>
			<g id="shape88-86" v:mID="88" v:groupContext="shape" transform="translate(7.29,-126)">
				<title>Sheet.88</title>
				<desc>Camera (LibArgus, V4L2)</desc>
				<v:textBlock v:margins="rect(4,4,4,4)"/>
				<v:textRect cx="60.21" cy="384.419" width="120.42" height="36"/>
				<path d="M0 366.42 L0 402.42 L120.42 402.42 L120.42 366.42 L0 366.42 L0 366.42 Z" class="st5"/>
				<text x="39.73" y="380.82" class="st6" v:langID="1033"><v:paragraph v:horizAlign="1"/><v:tabList/>Camera<v:newlineChar/><tspan
							x="16.26" dy="1.2em" class="st10">(LibArgus, V4L2)</tspan></text>			</g>
			<g id="shape89-90" v:mID="89" v:groupContext="shape" transform="translate(7.29,-97.1129)">
				<title>Sheet.89</title>
				<desc>SPE RTOS</desc>
				<v:textBlock v:margins="rect(4,4,4,4)"/>
				<v:textRect cx="60.21" cy="391.619" width="120.42" height="21.6"/>
				<path d="M0 380.82 L0 402.42 L120.42 402.42 L120.42 380.82 L0 380.82 L0 380.82 Z" class="st5"/>
				<text x="35.05" y="395.22" class="st6" v:langID="1033"><v:paragraph v:horizAlign="1"/><v:tabList/>SPE RTOS</text>			</g>
			<g id="shape90-93" v:mID="90" v:groupContext="shape" transform="translate(7.29,-69.5046)">
				<title>Sheet.90</title>
				<desc>PCIe, Ethernet</desc>
				<v:textBlock v:margins="rect(4,4,4,4)"/>
				<v:textRect cx="60.21" cy="391.619" width="120.42" height="21.6"/>
				<path d="M0 380.82 L0 402.42 L120.42 402.42 L120.42 380.82 L0 380.82 L0 380.82 Z" class="st9"/>
				<text x="20.92" y="395.22" class="st6" v:langID="1033"><v:paragraph v:horizAlign="1"/><v:tabList/>PCIe, Ethernet</text>			</g>
			<g id="shape93-96" v:mID="93" v:groupContext="shape" transform="translate(7.29,-40.4693)">
				<title>Sheet.93</title>
				<desc>SPI, CAN, I2S APIs</desc>
				<v:textBlock v:margins="rect(4,4,4,4)"/>
				<v:textRect cx="60.21" cy="391.619" width="120.42" height="21.6"/>
				<path d="M0 380.82 L0 402.42 L120.42 402.42 L120.42 380.82 L0 380.82 L0 380.82 Z" class="st9"/>
				<text x="13.94" y="395.22" class="st6" v:langID="1033"><v:paragraph v:horizAlign="1"/><v:tabList/>SPI, CAN, I<tspan
							dy="-0.198em" class="st11" v:baseFontSize="12">2</tspan><tspan dy="0.129em" class="st10">S APIs</tspan></text>			</g>
		</g>
		<g id="group127-101" transform="translate(879.75,-48.0483)" v:mID="127" v:groupContext="group">
			<title>Sheet.127</title>
			<g id="shape82-102" v:mID="82" v:groupContext="shape" transform="translate(0,-2.25)">
				<title>Sheet.82</title>
				<desc>Developer tools</desc>
				<v:textBlock v:margins="rect(4,4,4,4)" v:verticalAlign="0"/>
				<v:textRect cx="67.5" cy="256.895" width="135" height="291.048"/>
				<path d="M0 111.37 L0 402.42 L135 402.42 L135 111.37 L0 111.37 L0 111.37 Z" class="st4"/>
				<text x="16.26" y="127.97" class="st7" v:langID="1033"><v:paragraph v:horizAlign="1"/><v:tabList/>Developer tools</text>			</g>
			<g id="shape83-105" v:mID="83" v:groupContext="shape" transform="translate(7.29,-238.5)">
				<title>Sheet.83</title>
				<desc>Nsight Systems</desc>
				<v:textBlock v:margins="rect(4,4,4,4)"/>
				<v:textRect cx="60.21" cy="388.919" width="120.42" height="27"/>
				<path d="M0 375.42 L0 402.42 L120.42 402.42 L120.42 375.42 L0 375.42 L0 375.42 Z" class="st5"/>
				<text x="20.43" y="392.52" class="st6" v:langID="1033"><v:paragraph v:horizAlign="1"/><v:tabList/>Nsight Systems</text>			</g>
			<g id="shape84-108" v:mID="84" v:groupContext="shape" transform="translate(7.29,-205.425)">
				<title>Sheet.84</title>
				<desc>Nsight Graphics</desc>
				<v:textBlock v:margins="rect(4,4,4,4)"/>
				<v:textRect cx="60.21" cy="388.919" width="120.42" height="27"/>
				<path d="M0 375.42 L0 402.42 L120.42 402.42 L120.42 375.42 L0 375.42 L0 375.42 Z" class="st5"/>
				<text x="18.49" y="392.52" class="st6" v:langID="1033"><v:paragraph v:horizAlign="1"/><v:tabList/>Nsight Graphics</text>			</g>
			<g id="shape85-111" v:mID="85" v:groupContext="shape" transform="translate(7.29,-172.875)">
				<title>Sheet.85</title>
				<desc>Nsight Compute</desc>
				<v:textBlock v:margins="rect(4,4,4,4)"/>
				<v:textRect cx="60.21" cy="388.919" width="120.42" height="27"/>
				<path d="M0 375.42 L0 402.42 L120.42 402.42 L120.42 375.42 L0 375.42 L0 375.42 Z" class="st9"/>
				<text x="17.7" y="392.52" class="st6" v:langID="1033"><v:paragraph v:horizAlign="1"/><v:tabList/>Nsight Compute</text>			</g>
			<g id="shape94-114" v:mID="94" v:groupContext="shape" transform="translate(7.29,-121.8)">
				<title>Sheet.94</title>
				<desc>Cross compile &#38; diagnostic utilities</desc>
				<v:textBlock v:margins="rect(4,4,4,4)"/>
				<v:textRect cx="60.21" cy="379.919" width="120.42" height="45"/>
				<path d="M0 357.42 L0 402.42 L120.42 402.42 L120.42 357.42 L0 357.42 L0 357.42 Z" class="st5"/>
				<text x="17.09" y="376.32" class="st6" v:langID="1033"><v:paragraph v:horizAlign="1"/><v:tabList/>Cross compile &#38; <tspan
							x="10.56" dy="1.2em" class="st10">diagnostic utilities</tspan></text>			</g>
			<g id="shape95-118" v:mID="95" v:groupContext="shape" transform="translate(7.29,-70.875)">
				<title>Sheet.95</title>
				<desc>Flashing scripts &#38; support tools</desc>
				<v:textBlock v:margins="rect(4,4,4,4)"/>
				<v:textRect cx="60.21" cy="379.919" width="120.42" height="45"/>
				<path d="M0 357.42 L0 402.42 L120.42 402.42 L120.42 357.42 L0 357.42 L0 357.42 Z" class="st9"/>
				<text x="12.99" y="376.32" class="st6" v:langID="1033"><v:paragraph v:horizAlign="1"/><v:tabList/>Flashing scripts &#38; <tspan
							x="25.06" dy="1.2em" class="st10">support tools</tspan></text>			</g>
		</g>
		<g id="group128-122" transform="translate(27.3419,-50.2983)" v:mID="128" v:groupContext="group">
			<title>Sheet.128</title>
			<g id="shape53-123" v:mID="53" v:groupContext="shape">
				<title>Sheet.53</title>
				<desc>Board Support Package (BSP)</desc>
				<v:textBlock v:margins="rect(4,4,4,4)" v:verticalAlign="0"/>
				<v:textRect cx="422.829" cy="355.368" width="845.66" height="94.1008"/>
				<path d="M0 308.32 L0 402.42 L845.66 402.42 L845.66 308.32 L0 308.32 L0 308.32 Z" class="st12"/>
				<text x="328.48" y="324.92" class="st7" v:langID="1033"><v:paragraph v:horizAlign="1"/><v:tabList/>Board Support Package (BSP)</text>			</g>
			<g id="shape54-126" v:mID="54" v:groupContext="shape" transform="translate(7.73721,-44.1)">
				<title>Sheet.54</title>
				<desc>Sources</desc>
				<v:textBlock v:margins="rect(4,4,4,4)"/>
				<v:textRect cx="135" cy="390.719" width="270" height="23.4"/>
				<path d="M0 379.02 L0 402.42 L270 402.42 L270 379.02 L0 379.02 L0 379.02 Z" class="st5"/>
				<text x="114.61" y="394.32" class="st6" v:langID="1033"><v:paragraph v:horizAlign="1"/><v:tabList/>Sources</text>			</g>
			<g id="shape55-129" v:mID="55" v:groupContext="shape" transform="translate(287.829,-44.1)">
				<title>Sheet.55</title>
				<desc>Sample root filesystem</desc>
				<v:textBlock v:margins="rect(4,4,4,4)"/>
				<v:textRect cx="135" cy="390.719" width="270" height="23.4"/>
				<path d="M0 379.02 L0 402.42 L270 402.42 L270 379.02 L0 379.02 L0 379.02 Z" class="st9"/>
				<text x="73.41" y="394.32" class="st6" v:langID="1033"><v:paragraph v:horizAlign="1"/><v:tabList/>Sample root filesystem</text>			</g>
			<g id="shape56-132" v:mID="56" v:groupContext="shape" transform="translate(568.368,-44.1)">
				<title>Sheet.56</title>
				<desc>Toolchain</desc>
				<v:textBlock v:margins="rect(4,4,4,4)"/>
				<v:textRect cx="135" cy="390.719" width="270" height="23.4"/>
				<path d="M0 379.02 L0 402.42 L270 402.42 L270 379.02 L0 379.02 L0 379.02 Z" class="st5"/>
				<text x="108.92" y="394.32" class="st6" v:langID="1033"><v:paragraph v:horizAlign="1"/><v:tabList/>Toolchain</text>			</g>
			<g id="shape57-135" v:mID="57" v:groupContext="shape" transform="translate(7.73721,-12.6)">
				<title>Sheet.57</title>
				<desc>Linux kernel</desc>
				<v:textBlock v:margins="rect(4,4,4,4)"/>
				<v:textRect cx="205.2" cy="390.719" width="410.4" height="23.4"/>
				<path d="M0 379.02 L0 402.42 L410.4 402.42 L410.4 379.02 L0 379.02 L0 379.02 Z" class="st5"/>
				<text x="172.13" y="394.32" class="st6" v:langID="1033"><v:paragraph v:horizAlign="1"/><v:tabList/>Linux kernel</text>			</g>
			<g id="shape58-138" v:mID="58" v:groupContext="shape" transform="translate(427.968,-12.6)">
				<title>Sheet.58</title>
				<desc>Bootloader</desc>
				<v:textBlock v:margins="rect(4,4,4,4)"/>
				<v:textRect cx="205.2" cy="390.719" width="410.4" height="23.4"/>
				<path d="M0 379.02 L0 402.42 L410.4 402.42 L410.4 379.02 L0 379.02 L0 379.02 Z" class="st5"/>
				<text x="175.9" y="394.32" class="st6" v:langID="1033"><v:paragraph v:horizAlign="1"/><v:tabList/>Bootloader</text>			</g>
		</g>
	</g>
</svg>
